<svg width="149" height="156" viewBox="0 0 149 156" fill="none" xmlns="http://www.w3.org/2000/svg">
<path fill-rule="evenodd" clip-rule="evenodd" d="M105.928 22.9922H94.0134L22.9629 155.622H34.8775L105.928 22.9922ZM62.8113 155.622H50.8967L121.947 22.9922H133.862L62.8113 155.622Z" fill="white"/>
<path d="M108.911 97.9263C110.856 94.3037 116.051 94.3037 117.997 97.9263L144.896 148.026C146.74 151.461 144.252 155.621 140.354 155.621H86.5543C82.6555 155.621 80.1673 151.461 82.0116 148.026L108.911 97.9263Z" fill="#E4F800"/>
<path d="M46.146 80.2465C44.2009 83.8692 39.0058 83.8691 37.0607 80.2465L10.161 30.1471C8.31674 26.7121 10.805 22.552 14.7037 22.552L68.503 22.552C72.4017 22.552 74.8899 26.7122 73.0456 30.1471L46.146 80.2465Z" fill="#E4F800"/>
</svg>
