<svg width="451" height="365" viewBox="0 0 451 365" fill="none" xmlns="http://www.w3.org/2000/svg">
<mask id="mask0_6379_48483" style="mask-type:alpha" maskUnits="userSpaceOnUse" x="0" y="0" width="451" height="365">
<rect x="0.447266" y="0.0986328" width="450" height="364.304" rx="44" fill="#1C1B1B"/>
</mask>
<g mask="url(#mask0_6379_48483)">
<rect x="0.447266" y="0.0986328" width="450" height="364.304" rx="44" fill="#1C1B1B"/>
<g opacity="0.3">
<rect x="192.715" y="172.292" width="69.2668" height="1.43264" rx="0.716319" fill="white"/>
<rect x="193.073" y="172.65" width="68.5504" height="0.716319" rx="0.358159" stroke="white" stroke-opacity="0.3" stroke-width="0.716319"/>
<rect x="177.389" y="51.811" width="40.011" height="2.09189" rx="1.04595" transform="rotate(44.7924 177.389 51.811)" fill="white"/>
<rect x="177.391" y="52.5181" width="39.011" height="1.09189" rx="0.545945" transform="rotate(44.7924 177.391 52.5181)" stroke="white" stroke-opacity="0.3"/>
<rect x="270.479" y="51.2417" width="40.011" height="2.09189" rx="1.04595" transform="rotate(131.024 270.479 51.2417)" fill="white"/>
<rect x="269.774" y="51.2907" width="39.011" height="1.09189" rx="0.545945" transform="rotate(131.024 269.774 51.2907)" stroke="white" stroke-opacity="0.3"/>
<rect x="164.281" y="80.5" width="122.402" height="81.4067" rx="13.5" stroke="white"/>
<rect x="192.418" y="107.018" width="13.5128" height="21.7309" rx="6.75641" fill="white"/>
<rect x="192.918" y="107.518" width="12.5128" height="20.7309" rx="6.25641" stroke="white" stroke-opacity="0.3"/>
<rect x="246.603" y="107.018" width="13.5128" height="21.7309" rx="6.75641" fill="white"/>
<rect x="247.103" y="107.518" width="12.5128" height="20.7309" rx="6.25641" stroke="white" stroke-opacity="0.3"/>
</g>
<path d="M96.324 268.176C96.2378 267.37 95.8746 266.742 95.2345 266.293C94.6005 265.843 93.7757 265.619 92.76 265.619C92.046 265.619 91.4336 265.726 90.9227 265.942C90.4118 266.157 90.0209 266.45 89.7501 266.819C89.4793 267.188 89.3408 267.61 89.3346 268.084C89.3346 268.478 89.4239 268.819 89.6024 269.109C89.787 269.398 90.0363 269.644 90.3502 269.847C90.6642 270.044 91.0119 270.211 91.3936 270.346C91.7752 270.481 92.1599 270.595 92.5477 270.688L94.3204 271.131C95.0344 271.297 95.7207 271.522 96.3794 271.805C97.0441 272.088 97.6381 272.445 98.1613 272.876C98.6907 273.307 99.1092 273.827 99.417 274.436C99.7248 275.046 99.8786 275.76 99.8786 276.578C99.8786 277.686 99.5955 278.662 99.0292 279.505C98.4629 280.342 97.6443 280.998 96.5732 281.472C95.5084 281.94 94.2188 282.173 92.7046 282.173C91.2335 282.173 89.9563 281.946 88.873 281.49C87.7958 281.035 86.9525 280.37 86.3431 279.496C85.7399 278.622 85.4137 277.557 85.3644 276.301H88.7345C88.7837 276.96 88.9868 277.508 89.3438 277.945C89.7008 278.382 90.1656 278.708 90.738 278.923C91.3166 279.139 91.9629 279.247 92.6769 279.247C93.4217 279.247 94.0742 279.136 94.6343 278.914C95.2006 278.686 95.6438 278.373 95.9639 277.972C96.2839 277.566 96.4471 277.092 96.4532 276.551C96.4471 276.058 96.3024 275.652 96.0193 275.332C95.7361 275.006 95.3391 274.735 94.8282 274.519C94.3235 274.298 93.7326 274.101 93.0555 273.928L90.9042 273.374C89.3469 272.974 88.1159 272.368 87.211 271.556C86.3124 270.737 85.863 269.65 85.863 268.296C85.863 267.182 86.1646 266.207 86.7678 265.369C87.3772 264.532 88.2051 263.883 89.2515 263.421C90.2979 262.953 91.4828 262.72 92.8062 262.72C94.1481 262.72 95.3237 262.953 96.3332 263.421C97.3488 263.883 98.1459 264.526 98.7245 265.351C99.3031 266.17 99.6017 267.111 99.6201 268.176H96.324ZM102.785 281.887V267.705H105.979V270.115H106.146C106.441 269.303 106.93 268.669 107.614 268.213C108.297 267.752 109.112 267.521 110.06 267.521C111.021 267.521 111.83 267.755 112.489 268.222C113.153 268.684 113.621 269.315 113.892 270.115H114.04C114.354 269.327 114.883 268.699 115.628 268.232C116.379 267.758 117.268 267.521 118.296 267.521C119.601 267.521 120.666 267.933 121.491 268.758C122.315 269.583 122.728 270.786 122.728 272.368V281.887H119.376V272.885C119.376 272.005 119.142 271.362 118.675 270.955C118.207 270.543 117.634 270.337 116.957 270.337C116.151 270.337 115.52 270.589 115.065 271.094C114.615 271.592 114.391 272.242 114.391 273.042V281.887H111.113V272.747C111.113 272.014 110.891 271.429 110.448 270.992C110.011 270.555 109.439 270.337 108.731 270.337C108.251 270.337 107.814 270.46 107.42 270.706C107.026 270.946 106.712 271.288 106.478 271.731C106.244 272.168 106.127 272.679 106.127 273.264V281.887H102.785ZM130.2 282.173C129.301 282.173 128.492 282.013 127.771 281.693C127.057 281.367 126.491 280.887 126.073 280.253C125.66 279.619 125.454 278.837 125.454 277.908C125.454 277.108 125.602 276.446 125.897 275.923C126.193 275.4 126.596 274.981 127.107 274.667C127.618 274.353 128.193 274.116 128.833 273.956C129.479 273.79 130.147 273.67 130.837 273.596C131.668 273.51 132.342 273.433 132.859 273.365C133.376 273.291 133.751 273.181 133.985 273.033C134.225 272.879 134.345 272.642 134.345 272.322V272.266C134.345 271.571 134.139 271.032 133.727 270.651C133.314 270.269 132.72 270.078 131.945 270.078C131.126 270.078 130.477 270.257 129.997 270.614C129.523 270.971 129.203 271.392 129.036 271.879L125.916 271.436C126.162 270.574 126.568 269.854 127.134 269.275C127.701 268.69 128.393 268.253 129.212 267.964C130.03 267.668 130.935 267.521 131.926 267.521C132.609 267.521 133.29 267.601 133.967 267.761C134.644 267.921 135.262 268.186 135.823 268.555C136.383 268.918 136.832 269.413 137.171 270.041C137.515 270.669 137.688 271.454 137.688 272.396V281.887H134.475V279.939H134.364C134.161 280.333 133.874 280.702 133.505 281.047C133.142 281.386 132.683 281.659 132.129 281.869C131.582 282.072 130.938 282.173 130.2 282.173ZM131.068 279.717C131.738 279.717 132.32 279.585 132.813 279.32C133.305 279.05 133.684 278.693 133.948 278.249C134.219 277.806 134.354 277.323 134.354 276.8V275.129C134.25 275.215 134.071 275.295 133.819 275.369C133.573 275.443 133.296 275.507 132.988 275.563C132.68 275.618 132.376 275.667 132.074 275.71C131.772 275.753 131.511 275.79 131.289 275.821C130.791 275.889 130.344 276 129.95 276.154C129.556 276.307 129.246 276.523 129.018 276.8C128.79 277.071 128.676 277.422 128.676 277.852C128.676 278.468 128.901 278.933 129.35 279.247C129.8 279.561 130.372 279.717 131.068 279.717ZM141.048 281.887V267.705H144.289V270.069H144.437C144.695 269.25 145.139 268.619 145.766 268.176C146.4 267.727 147.124 267.502 147.936 267.502C148.121 267.502 148.327 267.511 148.555 267.53C148.789 267.542 148.983 267.564 149.136 267.595V270.669C148.995 270.62 148.77 270.577 148.462 270.54C148.161 270.497 147.868 270.475 147.585 270.475C146.976 270.475 146.428 270.608 145.942 270.872C145.462 271.131 145.083 271.491 144.806 271.953C144.529 272.414 144.391 272.947 144.391 273.55V281.887H141.048ZM159.2 267.705V270.291H151.048V267.705H159.2ZM153.06 264.308H156.403V277.622C156.403 278.071 156.47 278.416 156.606 278.656C156.747 278.89 156.932 279.05 157.16 279.136C157.388 279.222 157.64 279.265 157.917 279.265C158.126 279.265 158.317 279.25 158.489 279.219C158.668 279.188 158.803 279.16 158.896 279.136L159.459 281.749C159.28 281.81 159.025 281.878 158.693 281.952C158.366 282.026 157.966 282.069 157.492 282.081C156.655 282.106 155.901 281.98 155.23 281.703C154.559 281.419 154.027 280.982 153.633 280.391C153.245 279.801 153.054 279.062 153.06 278.176V264.308ZM168.593 262.978H172.784L178.398 276.68H178.62L184.233 262.978H188.425V281.887H185.138V268.896H184.963L179.737 281.832H177.281L172.055 268.869H171.88V281.887H168.593V262.978ZM198.193 282.164C196.809 282.164 195.608 281.86 194.593 281.25C193.577 280.641 192.789 279.788 192.229 278.693C191.675 277.597 191.398 276.317 191.398 274.852C191.398 273.387 191.675 272.103 192.229 271.002C192.789 269.9 193.577 269.044 194.593 268.435C195.608 267.825 196.809 267.521 198.193 267.521C199.578 267.521 200.779 267.825 201.794 268.435C202.81 269.044 203.595 269.9 204.149 271.002C204.709 272.103 204.989 273.387 204.989 274.852C204.989 276.317 204.709 277.597 204.149 278.693C203.595 279.788 202.81 280.641 201.794 281.25C200.779 281.86 199.578 282.164 198.193 282.164ZM198.212 279.487C198.963 279.487 199.591 279.28 200.095 278.868C200.6 278.449 200.976 277.889 201.222 277.188C201.474 276.486 201.6 275.704 201.6 274.842C201.6 273.975 201.474 273.19 201.222 272.488C200.976 271.78 200.6 271.217 200.095 270.798C199.591 270.38 198.963 270.171 198.212 270.171C197.443 270.171 196.802 270.38 196.291 270.798C195.787 271.217 195.408 271.78 195.156 272.488C194.91 273.19 194.786 273.975 194.786 274.842C194.786 275.704 194.91 276.486 195.156 277.188C195.408 277.889 195.787 278.449 196.291 278.868C196.802 279.28 197.443 279.487 198.212 279.487ZM211.168 273.578V281.887H207.826V267.705H211.02V270.115H211.187C211.513 269.321 212.033 268.69 212.747 268.222C213.467 267.755 214.357 267.521 215.415 267.521C216.394 267.521 217.246 267.73 217.973 268.149C218.705 268.567 219.272 269.173 219.672 269.967C220.078 270.761 220.278 271.725 220.272 272.857V281.887H216.929V273.374C216.929 272.427 216.683 271.685 216.191 271.149C215.705 270.614 215.031 270.346 214.169 270.346C213.584 270.346 213.064 270.475 212.608 270.734C212.159 270.986 211.805 271.352 211.547 271.833C211.294 272.313 211.168 272.894 211.168 273.578ZM229.948 282.164C228.526 282.164 227.298 281.869 226.264 281.278C225.236 280.681 224.445 279.837 223.891 278.748C223.337 277.652 223.06 276.363 223.06 274.879C223.06 273.421 223.337 272.14 223.891 271.038C224.451 269.931 225.233 269.069 226.236 268.453C227.24 267.832 228.418 267.521 229.772 267.521C230.647 267.521 231.471 267.662 232.247 267.945C233.029 268.222 233.718 268.653 234.315 269.238C234.918 269.823 235.392 270.568 235.737 271.472C236.082 272.371 236.254 273.442 236.254 274.686V275.71H224.63V273.458H233.05C233.044 272.817 232.906 272.248 232.635 271.749C232.364 271.245 231.985 270.848 231.499 270.558C231.019 270.269 230.459 270.124 229.819 270.124C229.135 270.124 228.535 270.291 228.018 270.623C227.501 270.949 227.098 271.38 226.809 271.916C226.526 272.445 226.381 273.027 226.375 273.661V275.627C226.375 276.452 226.526 277.16 226.827 277.751C227.129 278.336 227.55 278.785 228.092 279.099C228.634 279.407 229.268 279.561 229.994 279.561C230.48 279.561 230.92 279.493 231.314 279.357C231.708 279.216 232.05 279.01 232.339 278.739C232.629 278.468 232.847 278.132 232.995 277.732L236.116 278.083C235.919 278.908 235.543 279.628 234.989 280.244C234.441 280.853 233.74 281.327 232.884 281.666C232.028 281.998 231.05 282.164 229.948 282.164ZM240.753 287.205C240.297 287.205 239.876 287.168 239.488 287.095C239.106 287.027 238.802 286.947 238.574 286.855L239.349 284.251C239.836 284.392 240.27 284.46 240.651 284.454C241.033 284.448 241.368 284.328 241.658 284.094C241.953 283.866 242.202 283.485 242.405 282.949L242.692 282.183L237.549 267.705H241.094L244.363 278.416H244.511L247.788 267.705H251.343L245.665 283.605C245.4 284.355 245.049 284.999 244.612 285.534C244.175 286.076 243.64 286.488 243.006 286.771C242.378 287.061 241.627 287.205 240.753 287.205Z" fill="#C8FF00"/>
<path d="M234.764 327.192V308.283H246.878V311.155H238.19V316.288H246.047V319.16H238.19V327.192H234.764ZM249.648 327.192V313.011H252.889V315.374H253.036C253.295 314.556 253.738 313.925 254.366 313.481C255 313.032 255.723 312.807 256.536 312.807C256.72 312.807 256.927 312.817 257.154 312.835C257.388 312.847 257.582 312.869 257.736 312.9V315.974C257.594 315.925 257.37 315.882 257.062 315.845C256.76 315.802 256.468 315.78 256.185 315.78C255.576 315.78 255.028 315.913 254.541 316.177C254.061 316.436 253.683 316.796 253.406 317.258C253.129 317.719 252.99 318.252 252.99 318.855V327.192H249.648ZM259.957 327.192V313.011H263.299V327.192H259.957ZM261.637 310.998C261.108 310.998 260.652 310.822 260.271 310.472C259.889 310.114 259.698 309.687 259.698 309.188C259.698 308.683 259.889 308.256 260.271 307.905C260.652 307.548 261.108 307.369 261.637 307.369C262.172 307.369 262.628 307.548 263.003 307.905C263.385 308.256 263.576 308.683 263.576 309.188C263.576 309.687 263.385 310.114 263.003 310.472C262.628 310.822 262.172 310.998 261.637 310.998ZM273.014 327.469C271.592 327.469 270.364 327.174 269.33 326.583C268.302 325.986 267.511 325.143 266.957 324.053C266.403 322.958 266.127 321.668 266.127 320.185C266.127 318.726 266.403 317.445 266.957 316.344C267.518 315.236 268.299 314.374 269.303 313.758C270.306 313.137 271.485 312.826 272.839 312.826C273.713 312.826 274.538 312.967 275.313 313.251C276.095 313.528 276.784 313.958 277.381 314.543C277.985 315.128 278.459 315.873 278.803 316.778C279.148 317.676 279.32 318.747 279.32 319.991V321.016H267.696V318.763H276.117C276.11 318.123 275.972 317.553 275.701 317.055C275.43 316.55 275.052 316.153 274.565 315.864C274.085 315.574 273.525 315.43 272.885 315.43C272.202 315.43 271.602 315.596 271.085 315.928C270.568 316.254 270.164 316.685 269.875 317.221C269.592 317.75 269.447 318.332 269.441 318.966V320.932C269.441 321.757 269.592 322.465 269.894 323.056C270.195 323.641 270.617 324.09 271.158 324.404C271.7 324.712 272.334 324.866 273.06 324.866C273.547 324.866 273.987 324.798 274.381 324.663C274.775 324.521 275.116 324.315 275.406 324.044C275.695 323.773 275.913 323.438 276.061 323.038L279.182 323.388C278.985 324.213 278.609 324.933 278.055 325.549C277.508 326.158 276.806 326.632 275.95 326.971C275.095 327.303 274.116 327.469 273.014 327.469ZM285.49 318.883V327.192H282.148V313.011H285.343V315.42H285.509C285.835 314.626 286.355 313.995 287.069 313.528C287.789 313.06 288.679 312.826 289.737 312.826C290.716 312.826 291.569 313.035 292.295 313.454C293.027 313.872 293.594 314.479 293.994 315.273C294.4 316.067 294.6 317.03 294.594 318.163V327.192H291.252V318.68C291.252 317.732 291.005 316.99 290.513 316.454C290.027 315.919 289.353 315.651 288.491 315.651C287.906 315.651 287.386 315.78 286.931 316.039C286.481 316.291 286.127 316.658 285.869 317.138C285.617 317.618 285.49 318.199 285.49 318.883ZM303.255 327.442C302.14 327.442 301.143 327.155 300.263 326.583C299.383 326.011 298.687 325.18 298.176 324.09C297.666 323.001 297.41 321.677 297.41 320.12C297.41 318.544 297.669 317.215 298.186 316.131C298.709 315.042 299.414 314.22 300.3 313.666C301.186 313.106 302.174 312.826 303.264 312.826C304.095 312.826 304.778 312.967 305.313 313.251C305.849 313.528 306.274 313.863 306.588 314.257C306.902 314.645 307.145 315.011 307.317 315.356H307.456V308.283H310.807V327.192H307.52V324.958H307.317C307.145 325.303 306.895 325.669 306.569 326.057C306.243 326.438 305.812 326.765 305.277 327.035C304.741 327.306 304.067 327.442 303.255 327.442ZM304.187 324.699C304.895 324.699 305.498 324.509 305.997 324.127C306.495 323.739 306.874 323.201 307.132 322.511C307.391 321.822 307.52 321.019 307.52 320.101C307.52 319.184 307.391 318.387 307.132 317.71C306.88 317.033 306.505 316.507 306.006 316.131C305.514 315.756 304.907 315.568 304.187 315.568C303.442 315.568 302.821 315.762 302.322 316.15C301.823 316.538 301.448 317.073 301.196 317.756C300.943 318.44 300.817 319.221 300.817 320.101C300.817 320.988 300.943 321.779 301.196 322.474C301.454 323.164 301.833 323.708 302.331 324.109C302.836 324.503 303.455 324.699 304.187 324.699ZM325.578 316.759L322.531 317.092C322.444 316.784 322.294 316.494 322.078 316.224C321.869 315.953 321.586 315.734 321.229 315.568C320.872 315.402 320.435 315.319 319.918 315.319C319.222 315.319 318.637 315.47 318.163 315.771C317.696 316.073 317.465 316.464 317.471 316.944C317.465 317.356 317.616 317.692 317.923 317.95C318.237 318.209 318.754 318.421 319.475 318.587L321.894 319.104C323.235 319.394 324.233 319.852 324.885 320.48C325.544 321.108 325.876 321.93 325.882 322.945C325.876 323.838 325.614 324.626 325.097 325.309C324.586 325.986 323.876 326.515 322.965 326.897C322.054 327.279 321.007 327.469 319.825 327.469C318.09 327.469 316.692 327.106 315.634 326.38C314.575 325.647 313.944 324.629 313.741 323.324L317 323.01C317.148 323.65 317.462 324.133 317.942 324.459C318.422 324.786 319.047 324.949 319.816 324.949C320.61 324.949 321.247 324.786 321.727 324.459C322.214 324.133 322.457 323.73 322.457 323.25C322.457 322.844 322.3 322.508 321.986 322.244C321.678 321.979 321.198 321.776 320.546 321.634L318.127 321.126C316.766 320.843 315.76 320.366 315.107 319.695C314.455 319.018 314.132 318.163 314.138 317.128C314.132 316.254 314.369 315.497 314.849 314.857C315.335 314.211 316.009 313.712 316.871 313.361C317.739 313.004 318.739 312.826 319.872 312.826C321.533 312.826 322.841 313.18 323.796 313.888C324.756 314.596 325.35 315.553 325.578 316.759Z" fill="#C8FF00"/>
<path d="M327.827 285.039V266.129H331.252V274.818H331.483L338.86 266.129H343.043L335.73 274.615L343.108 285.039H338.99L333.348 276.932L331.252 279.406V285.039H327.827ZM361.303 275.584C361.303 277.621 360.922 279.366 360.158 280.819C359.401 282.266 358.367 283.374 357.056 284.143C355.751 284.912 354.271 285.297 352.615 285.297C350.959 285.297 349.476 284.912 348.165 284.143C346.86 283.367 345.826 282.256 345.063 280.81C344.305 279.357 343.927 277.615 343.927 275.584C343.927 273.547 344.305 271.805 345.063 270.358C345.826 268.906 346.86 267.794 348.165 267.025C349.476 266.256 350.959 265.871 352.615 265.871C354.271 265.871 355.751 266.256 357.056 267.025C358.367 267.794 359.401 268.906 360.158 270.358C360.922 271.805 361.303 273.547 361.303 275.584ZM357.859 275.584C357.859 274.15 357.635 272.94 357.185 271.955C356.742 270.964 356.127 270.217 355.339 269.712C354.551 269.201 353.643 268.946 352.615 268.946C351.587 268.946 350.679 269.201 349.891 269.712C349.104 270.217 348.485 270.964 348.036 271.955C347.592 272.94 347.371 274.15 347.371 275.584C347.371 277.018 347.592 278.231 348.036 279.222C348.485 280.207 349.104 280.955 349.891 281.465C350.679 281.97 351.587 282.223 352.615 282.223C353.643 282.223 354.551 281.97 355.339 281.465C356.127 280.955 356.742 280.207 357.185 279.222C357.635 278.231 357.859 277.018 357.859 275.584ZM364.542 285.039V266.129H367.967V282.167H376.295V285.039H364.542ZM389.697 285.039L384.36 266.129H388.044L391.451 280.025H391.627L395.264 266.129H398.616L402.263 280.034H402.429L405.836 266.129H409.52L404.184 285.039H400.804L397.019 271.771H396.871L393.076 285.039H389.697ZM414.381 285.325C413.483 285.325 412.673 285.165 411.953 284.845C411.239 284.518 410.673 284.038 410.254 283.404C409.842 282.77 409.636 281.989 409.636 281.059C409.636 280.259 409.783 279.597 410.079 279.074C410.374 278.551 410.777 278.132 411.288 277.818C411.799 277.504 412.375 277.268 413.015 277.107C413.661 276.941 414.329 276.821 415.018 276.747C415.849 276.661 416.523 276.584 417.04 276.517C417.557 276.443 417.933 276.332 418.167 276.184C418.407 276.03 418.527 275.793 418.527 275.473V275.418C418.527 274.722 418.321 274.184 417.908 273.802C417.496 273.42 416.902 273.23 416.126 273.23C415.308 273.23 414.658 273.408 414.178 273.765C413.704 274.122 413.384 274.544 413.218 275.03L410.097 274.587C410.343 273.725 410.75 273.005 411.316 272.426C411.882 271.842 412.575 271.405 413.393 271.115C414.212 270.82 415.117 270.672 416.108 270.672C416.791 270.672 417.471 270.752 418.148 270.912C418.825 271.072 419.444 271.337 420.004 271.706C420.564 272.069 421.014 272.565 421.352 273.193C421.697 273.821 421.869 274.605 421.869 275.547V285.039H418.656V283.09H418.545C418.342 283.484 418.056 283.854 417.687 284.198C417.324 284.537 416.865 284.811 416.311 285.02C415.763 285.223 415.12 285.325 414.381 285.325ZM415.249 282.869C415.92 282.869 416.502 282.736 416.994 282.472C417.487 282.201 417.865 281.844 418.13 281.401C418.401 280.958 418.536 280.474 418.536 279.951V278.28C418.431 278.366 418.253 278.446 418.001 278.52C417.754 278.594 417.477 278.659 417.17 278.714C416.862 278.769 416.557 278.819 416.256 278.862C415.954 278.905 415.692 278.942 415.471 278.973C414.972 279.04 414.526 279.151 414.132 279.305C413.738 279.459 413.427 279.674 413.199 279.951C412.972 280.222 412.858 280.573 412.858 281.004C412.858 281.619 413.083 282.084 413.532 282.398C413.981 282.712 414.554 282.869 415.249 282.869ZM428.572 266.129V285.039H425.23V266.129H428.572ZM435.352 266.129V285.039H432.009V266.129H435.352ZM445.067 285.316C443.645 285.316 442.417 285.02 441.383 284.429C440.355 283.832 439.564 282.989 439.01 281.899C438.456 280.804 438.179 279.514 438.179 278.031C438.179 276.572 438.456 275.292 439.01 274.19C439.57 273.082 440.352 272.22 441.355 271.605C442.359 270.983 443.537 270.672 444.892 270.672C445.766 270.672 446.59 270.814 447.366 271.097C448.148 271.374 448.837 271.805 449.434 272.389C450.037 272.974 450.511 273.719 450.856 274.624C451.201 275.522 451.373 276.593 451.373 277.837V278.862H439.749V276.609H448.169C448.163 275.969 448.025 275.399 447.754 274.901C447.483 274.396 447.104 273.999 446.618 273.71C446.138 273.42 445.578 273.276 444.938 273.276C444.255 273.276 443.654 273.442 443.137 273.774C442.62 274.101 442.217 274.531 441.928 275.067C441.645 275.596 441.5 276.178 441.494 276.812V278.779C441.494 279.603 441.645 280.311 441.946 280.902C442.248 281.487 442.67 281.936 443.211 282.25C443.753 282.558 444.387 282.712 445.113 282.712C445.599 282.712 446.04 282.644 446.434 282.509C446.827 282.367 447.169 282.161 447.458 281.89C447.748 281.619 447.966 281.284 448.114 280.884L451.235 281.235C451.038 282.059 450.662 282.78 450.108 283.395C449.56 284.004 448.859 284.478 448.003 284.817C447.148 285.149 446.169 285.316 445.067 285.316ZM461.282 270.857V273.442H453.13V270.857H461.282ZM455.142 267.459H458.485V280.773C458.485 281.222 458.553 281.567 458.688 281.807C458.83 282.041 459.014 282.201 459.242 282.287C459.47 282.373 459.722 282.416 459.999 282.416C460.208 282.416 460.399 282.401 460.571 282.37C460.75 282.339 460.885 282.312 460.978 282.287L461.541 284.9C461.362 284.962 461.107 285.029 460.775 285.103C460.448 285.177 460.048 285.22 459.574 285.232C458.737 285.257 457.983 285.131 457.312 284.854C456.641 284.571 456.109 284.134 455.715 283.543C455.327 282.952 455.136 282.213 455.142 281.327V267.459Z" fill="#515151"/>
<path d="M378.314 327.421H371.907V308.512H378.443C380.321 308.512 381.934 308.89 383.282 309.647C384.636 310.398 385.676 311.479 386.402 312.888C387.129 314.298 387.492 315.984 387.492 317.948C387.492 319.918 387.126 321.61 386.393 323.026C385.667 324.442 384.617 325.528 383.245 326.285C381.878 327.042 380.235 327.421 378.314 327.421ZM375.332 324.457H378.148C379.465 324.457 380.564 324.217 381.444 323.737C382.324 323.251 382.986 322.527 383.429 321.567C383.872 320.601 384.094 319.394 384.094 317.948C384.094 316.501 383.872 315.301 383.429 314.347C382.986 313.387 382.331 312.67 381.463 312.196C380.601 311.716 379.53 311.476 378.25 311.476H375.332V324.457ZM390.599 327.421V313.239H393.941V327.421H390.599ZM392.279 311.226C391.75 311.226 391.294 311.051 390.913 310.7C390.531 310.343 390.34 309.915 390.34 309.417C390.34 308.912 390.531 308.484 390.913 308.133C391.294 307.776 391.75 307.598 392.279 307.598C392.815 307.598 393.27 307.776 393.646 308.133C394.027 308.484 394.218 308.912 394.218 309.417C394.218 309.915 394.027 310.343 393.646 310.7C393.27 311.051 392.815 311.226 392.279 311.226ZM401.459 327.707C400.56 327.707 399.751 327.547 399.031 327.227C398.317 326.901 397.75 326.421 397.332 325.787C396.919 325.153 396.713 324.371 396.713 323.441C396.713 322.641 396.861 321.98 397.156 321.456C397.452 320.933 397.855 320.515 398.366 320.201C398.877 319.887 399.452 319.65 400.092 319.49C400.739 319.324 401.407 319.204 402.096 319.13C402.927 319.044 403.601 318.967 404.118 318.899C404.635 318.825 405.011 318.714 405.244 318.566C405.485 318.413 405.605 318.176 405.605 317.856V317.8C405.605 317.105 405.398 316.566 404.986 316.184C404.574 315.803 403.98 315.612 403.204 315.612C402.385 315.612 401.736 315.79 401.256 316.147C400.782 316.504 400.462 316.926 400.296 317.412L397.175 316.969C397.421 316.107 397.827 315.387 398.394 314.809C398.96 314.224 399.652 313.787 400.471 313.498C401.29 313.202 402.194 313.054 403.186 313.054C403.869 313.054 404.549 313.134 405.226 313.294C405.903 313.455 406.522 313.719 407.082 314.089C407.642 314.452 408.091 314.947 408.43 315.575C408.775 316.203 408.947 316.988 408.947 317.929V327.421H405.734V325.473H405.623C405.42 325.867 405.134 326.236 404.764 326.581C404.401 326.919 403.943 327.193 403.389 327.402C402.841 327.606 402.198 327.707 401.459 327.707ZM402.327 325.251C402.998 325.251 403.579 325.119 404.072 324.854C404.564 324.583 404.943 324.226 405.208 323.783C405.478 323.34 405.614 322.857 405.614 322.334V320.662C405.509 320.749 405.331 320.829 405.078 320.902C404.832 320.976 404.555 321.041 404.247 321.096C403.94 321.152 403.635 321.201 403.333 321.244C403.032 321.287 402.77 321.324 402.548 321.355C402.05 321.423 401.604 321.533 401.21 321.687C400.816 321.841 400.505 322.057 400.277 322.334C400.049 322.604 399.936 322.955 399.936 323.386C399.936 324.002 400.16 324.466 400.61 324.78C401.059 325.094 401.631 325.251 402.327 325.251ZM412.308 327.421V313.239H415.502V315.649H415.668C415.964 314.836 416.453 314.202 417.136 313.747C417.82 313.285 418.635 313.054 419.583 313.054C420.543 313.054 421.353 313.288 422.011 313.756C422.676 314.218 423.144 314.849 423.415 315.649H423.563C423.877 314.861 424.406 314.233 425.151 313.765C425.902 313.291 426.791 313.054 427.819 313.054C429.124 313.054 430.189 313.467 431.014 314.292C431.838 315.116 432.251 316.32 432.251 317.902V327.421H428.899V318.419C428.899 317.539 428.665 316.895 428.198 316.489C427.73 316.077 427.157 315.87 426.48 315.87C425.674 315.87 425.043 316.123 424.587 316.628C424.138 317.126 423.913 317.776 423.913 318.576V327.421H420.636V318.28C420.636 317.548 420.414 316.963 419.971 316.526C419.534 316.089 418.962 315.87 418.254 315.87C417.774 315.87 417.337 315.994 416.943 316.24C416.549 316.48 416.235 316.821 416.001 317.265C415.767 317.702 415.65 318.213 415.65 318.797V327.421H412.308ZM441.828 327.698C440.443 327.698 439.242 327.393 438.227 326.784C437.211 326.174 436.423 325.322 435.863 324.226C435.309 323.131 435.032 321.85 435.032 320.385C435.032 318.92 435.309 317.637 435.863 316.535C436.423 315.433 437.211 314.578 438.227 313.968C439.242 313.359 440.443 313.054 441.828 313.054C443.213 313.054 444.413 313.359 445.429 313.968C446.444 314.578 447.229 315.433 447.783 316.535C448.343 317.637 448.623 318.92 448.623 320.385C448.623 321.85 448.343 323.131 447.783 324.226C447.229 325.322 446.444 326.174 445.429 326.784C444.413 327.393 443.213 327.698 441.828 327.698ZM441.846 325.02C442.597 325.02 443.225 324.814 443.73 324.402C444.234 323.983 444.61 323.423 444.856 322.721C445.109 322.02 445.235 321.238 445.235 320.376C445.235 319.508 445.109 318.723 444.856 318.022C444.61 317.314 444.234 316.751 443.73 316.332C443.225 315.914 442.597 315.704 441.846 315.704C441.077 315.704 440.437 315.914 439.926 316.332C439.421 316.751 439.042 317.314 438.79 318.022C438.544 318.723 438.421 319.508 438.421 320.376C438.421 321.238 438.544 322.02 438.79 322.721C439.042 323.423 439.421 323.983 439.926 324.402C440.437 324.814 441.077 325.02 441.846 325.02ZM454.802 319.111V327.421H451.46V313.239H454.655V315.649H454.821C455.147 314.855 455.667 314.224 456.381 313.756C457.101 313.288 457.991 313.054 459.049 313.054C460.028 313.054 460.881 313.264 461.607 313.682C462.34 314.101 462.906 314.707 463.306 315.501C463.712 316.295 463.912 317.258 463.906 318.391V327.421H460.564V318.908C460.564 317.96 460.317 317.218 459.825 316.683C459.339 316.147 458.665 315.88 457.803 315.88C457.218 315.88 456.698 316.009 456.243 316.267C455.793 316.52 455.439 316.886 455.181 317.366C454.929 317.846 454.802 318.428 454.802 319.111ZM472.567 327.67C471.452 327.67 470.455 327.384 469.575 326.812C468.695 326.239 467.999 325.408 467.488 324.319C466.978 323.229 466.722 321.906 466.722 320.348C466.722 318.773 466.981 317.443 467.498 316.36C468.021 315.27 468.726 314.449 469.612 313.895C470.498 313.334 471.486 313.054 472.576 313.054C473.407 313.054 474.09 313.196 474.625 313.479C475.161 313.756 475.586 314.092 475.9 314.486C476.214 314.873 476.457 315.24 476.629 315.584H476.768V308.512H480.119V327.421H476.832V325.187H476.629C476.457 325.531 476.207 325.897 475.881 326.285C475.555 326.667 475.124 326.993 474.589 327.264C474.053 327.535 473.379 327.67 472.567 327.67ZM473.499 324.928C474.207 324.928 474.81 324.737 475.309 324.356C475.807 323.968 476.186 323.429 476.444 322.74C476.703 322.05 476.832 321.247 476.832 320.33C476.832 319.413 476.703 318.616 476.444 317.939C476.192 317.262 475.817 316.735 475.318 316.36C474.826 315.984 474.219 315.797 473.499 315.797C472.754 315.797 472.133 315.991 471.634 316.378C471.135 316.766 470.76 317.302 470.508 317.985C470.255 318.668 470.129 319.45 470.129 320.33C470.129 321.216 470.255 322.007 470.508 322.703C470.766 323.392 471.145 323.937 471.643 324.337C472.148 324.731 472.767 324.928 473.499 324.928ZM490.278 327.421V308.512H493.703V316.517H502.465V308.512H505.9V327.421H502.465V319.388H493.703V327.421H490.278ZM513.559 327.707C512.66 327.707 511.85 327.547 511.13 327.227C510.416 326.901 509.85 326.421 509.431 325.787C509.019 325.153 508.813 324.371 508.813 323.441C508.813 322.641 508.961 321.98 509.256 321.456C509.551 320.933 509.955 320.515 510.466 320.201C510.976 319.887 511.552 319.65 512.192 319.49C512.838 319.324 513.506 319.204 514.196 319.13C515.027 319.044 515.701 318.967 516.218 318.899C516.735 318.825 517.11 318.714 517.344 318.566C517.584 318.413 517.704 318.176 517.704 317.856V317.8C517.704 317.105 517.498 316.566 517.086 316.184C516.673 315.803 516.079 315.612 515.304 315.612C514.485 315.612 513.836 315.79 513.355 316.147C512.881 316.504 512.561 316.926 512.395 317.412L509.274 316.969C509.521 316.107 509.927 315.387 510.493 314.809C511.059 314.224 511.752 313.787 512.571 313.498C513.389 313.202 514.294 313.054 515.285 313.054C515.968 313.054 516.649 313.134 517.326 313.294C518.003 313.455 518.621 313.719 519.181 314.089C519.742 314.452 520.191 314.947 520.529 315.575C520.874 316.203 521.046 316.988 521.046 317.929V327.421H517.833V325.473H517.723C517.519 325.867 517.233 326.236 516.864 326.581C516.501 326.919 516.042 327.193 515.488 327.402C514.94 327.606 514.297 327.707 513.559 327.707ZM514.426 325.251C515.097 325.251 515.679 325.119 516.171 324.854C516.664 324.583 517.042 324.226 517.307 323.783C517.578 323.34 517.713 322.857 517.713 322.334V320.662C517.609 320.749 517.43 320.829 517.178 320.902C516.932 320.976 516.655 321.041 516.347 321.096C516.039 321.152 515.734 321.201 515.433 321.244C515.131 321.287 514.87 321.324 514.648 321.355C514.149 321.423 513.703 321.533 513.309 321.687C512.915 321.841 512.604 322.057 512.377 322.334C512.149 322.604 512.035 322.955 512.035 323.386C512.035 324.002 512.26 324.466 512.709 324.78C513.158 325.094 513.731 325.251 514.426 325.251ZM527.75 319.111V327.421H524.407V313.239H527.602V315.649H527.768C528.094 314.855 528.614 314.224 529.328 313.756C530.049 313.288 530.938 313.054 531.997 313.054C532.975 313.054 533.828 313.264 534.554 313.682C535.287 314.101 535.853 314.707 536.253 315.501C536.659 316.295 536.859 317.258 536.853 318.391V327.421H533.511V318.908C533.511 317.96 533.265 317.218 532.772 316.683C532.286 316.147 531.612 315.88 530.75 315.88C530.166 315.88 529.645 316.009 529.19 316.267C528.741 316.52 528.387 316.886 528.128 317.366C527.876 317.846 527.75 318.428 527.75 319.111ZM545.514 327.67C544.4 327.67 543.403 327.384 542.522 326.812C541.642 326.239 540.947 325.408 540.436 324.319C539.925 323.229 539.669 321.906 539.669 320.348C539.669 318.773 539.928 317.443 540.445 316.36C540.968 315.27 541.673 314.449 542.559 313.895C543.446 313.334 544.434 313.054 545.523 313.054C546.354 313.054 547.037 313.196 547.573 313.479C548.108 313.756 548.533 314.092 548.847 314.486C549.161 314.873 549.404 315.24 549.576 315.584H549.715V308.512H553.066V327.421H549.779V325.187H549.576C549.404 325.531 549.155 325.897 548.828 326.285C548.502 326.667 548.071 326.993 547.536 327.264C547 327.535 546.326 327.67 545.514 327.67ZM546.446 324.928C547.154 324.928 547.757 324.737 548.256 324.356C548.755 323.968 549.133 323.429 549.392 322.74C549.65 322.05 549.779 321.247 549.779 320.33C549.779 319.413 549.65 318.616 549.392 317.939C549.139 317.262 548.764 316.735 548.265 316.36C547.773 315.984 547.167 315.797 546.446 315.797C545.702 315.797 545.08 315.991 544.581 316.378C544.083 316.766 543.707 317.302 543.455 317.985C543.202 318.668 543.076 319.45 543.076 320.33C543.076 321.216 543.202 322.007 543.455 322.703C543.713 323.392 544.092 323.937 544.591 324.337C545.095 324.731 545.714 324.928 546.446 324.928ZM567.837 316.988L564.79 317.32C564.704 317.012 564.553 316.723 564.337 316.452C564.128 316.181 563.845 315.963 563.488 315.797C563.131 315.63 562.694 315.547 562.177 315.547C561.481 315.547 560.897 315.698 560.423 316C559.955 316.301 559.724 316.692 559.73 317.172C559.724 317.585 559.875 317.92 560.183 318.179C560.497 318.437 561.014 318.65 561.734 318.816L564.153 319.333C565.495 319.622 566.492 320.081 567.144 320.709C567.803 321.336 568.135 322.158 568.141 323.174C568.135 324.066 567.874 324.854 567.357 325.537C566.846 326.214 566.135 326.744 565.224 327.125C564.313 327.507 563.266 327.698 562.085 327.698C560.349 327.698 558.952 327.335 557.893 326.608C556.834 325.876 556.203 324.857 556 323.552L559.259 323.238C559.407 323.879 559.721 324.362 560.201 324.688C560.681 325.014 561.306 325.177 562.075 325.177C562.869 325.177 563.507 325.014 563.987 324.688C564.473 324.362 564.716 323.959 564.716 323.478C564.716 323.072 564.559 322.737 564.245 322.472C563.937 322.207 563.457 322.004 562.805 321.863L560.386 321.355C559.025 321.072 558.019 320.595 557.367 319.924C556.714 319.247 556.391 318.391 556.397 317.357C556.391 316.483 556.628 315.726 557.108 315.086C557.594 314.439 558.268 313.941 559.13 313.59C559.998 313.233 560.998 313.054 562.131 313.054C563.793 313.054 565.101 313.408 566.055 314.116C567.015 314.824 567.609 315.781 567.837 316.988Z" fill="#515151"/>
<path d="M33.7595 327.421L28.4229 308.512H32.1068L35.5138 322.407H35.6892L39.327 308.512H42.6785L46.3256 322.417H46.4917L49.8987 308.512H53.5827L48.246 327.421H44.8667L41.0812 314.153H40.9335L37.1388 327.421H33.7595ZM59.1524 319.111V327.421H55.8101V308.512H59.0786V315.649H59.2448C59.5771 314.849 60.0911 314.218 60.7867 313.756C61.4884 313.288 62.3809 313.054 63.4642 313.054C64.4491 313.054 65.3077 313.261 66.0402 313.673C66.7727 314.085 67.339 314.689 67.7391 315.483C68.1453 316.277 68.3485 317.246 68.3485 318.391V327.421H65.0061V318.908C65.0061 317.954 64.7599 317.212 64.2675 316.683C63.7812 316.147 63.098 315.88 62.2178 315.88C61.6269 315.88 61.0975 316.009 60.6297 316.267C60.1681 316.52 59.8049 316.886 59.5402 317.366C59.2817 317.846 59.1524 318.428 59.1524 319.111ZM75.8364 327.707C74.9377 327.707 74.1283 327.547 73.4081 327.227C72.6941 326.901 72.1278 326.421 71.7093 325.787C71.2968 325.153 71.0906 324.371 71.0906 323.441C71.0906 322.641 71.2384 321.98 71.5338 321.456C71.8293 320.933 72.2325 320.515 72.7433 320.201C73.2542 319.887 73.8298 319.65 74.4699 319.49C75.1162 319.324 75.7841 319.204 76.4735 319.13C77.3044 319.044 77.9784 318.967 78.4955 318.899C79.0125 318.825 79.388 318.714 79.6219 318.566C79.862 318.413 79.982 318.176 79.982 317.856V317.8C79.982 317.105 79.7758 316.566 79.3634 316.184C78.951 315.803 78.357 315.612 77.5814 315.612C76.7628 315.612 76.1134 315.79 75.6333 316.147C75.1593 316.504 74.8392 316.926 74.673 317.412L71.5523 316.969C71.7985 316.107 72.2048 315.387 72.771 314.809C73.3373 314.224 74.0298 313.787 74.8485 313.498C75.6671 313.202 76.5719 313.054 77.5629 313.054C78.2462 313.054 78.9263 313.134 79.6034 313.294C80.2805 313.455 80.8991 313.719 81.4593 314.089C82.0194 314.452 82.4687 314.947 82.8073 315.575C83.152 316.203 83.3243 316.988 83.3243 317.929V327.421H80.1112V325.473H80.0004C79.7973 325.867 79.5111 326.236 79.1418 326.581C78.7786 326.919 78.32 327.193 77.7661 327.402C77.2182 327.606 76.575 327.707 75.8364 327.707ZM76.7043 325.251C77.3752 325.251 77.9569 325.119 78.4493 324.854C78.9417 324.583 79.3203 324.226 79.585 323.783C79.8558 323.34 79.9912 322.857 79.9912 322.334V320.662C79.8866 320.749 79.7081 320.829 79.4557 320.902C79.2095 320.976 78.9325 321.041 78.6247 321.096C78.317 321.152 78.0123 321.201 77.7107 321.244C77.4091 321.287 77.1475 321.324 76.9259 321.355C76.4273 321.423 75.981 321.533 75.5871 321.687C75.1932 321.841 74.8823 322.057 74.6546 322.334C74.4268 322.604 74.3129 322.955 74.3129 323.386C74.3129 324.002 74.5376 324.466 74.9869 324.78C75.4363 325.094 76.0087 325.251 76.7043 325.251ZM90.0274 308.512V327.421H86.6851V308.512H90.0274ZM99.7428 327.698C98.3209 327.698 97.093 327.402 96.0589 326.812C95.0309 326.214 94.24 325.371 93.686 324.282C93.132 323.186 92.855 321.897 92.855 320.413C92.855 318.954 93.132 317.674 93.686 316.572C94.2461 315.464 95.0278 314.602 96.0312 313.987C97.0345 313.365 98.2132 313.054 99.5674 313.054C100.441 313.054 101.266 313.196 102.042 313.479C102.824 313.756 103.513 314.187 104.11 314.772C104.713 315.357 105.187 316.101 105.532 317.006C105.877 317.905 106.049 318.976 106.049 320.219V321.244H94.4246V318.991H102.845C102.839 318.351 102.7 317.782 102.43 317.283C102.159 316.778 101.78 316.381 101.294 316.092C100.814 315.803 100.254 315.658 99.6135 315.658C98.9303 315.658 98.3302 315.824 97.8131 316.157C97.2961 316.483 96.8929 316.914 96.6036 317.449C96.3205 317.979 96.1758 318.56 96.1697 319.194V321.161C96.1697 321.986 96.3205 322.694 96.6221 323.285C96.9237 323.869 97.3453 324.319 97.887 324.633C98.4287 324.94 99.0626 325.094 99.789 325.094C100.275 325.094 100.715 325.026 101.109 324.891C101.503 324.749 101.845 324.543 102.134 324.272C102.423 324.002 102.642 323.666 102.79 323.266L105.91 323.617C105.713 324.442 105.338 325.162 104.784 325.777C104.236 326.387 103.534 326.861 102.679 327.199C101.823 327.532 100.845 327.698 99.7428 327.698Z" fill="#515151"/>
<rect x="23.8076" y="163.232" width="18.8982" height="23.1875" fill="#282828"/>
<rect x="49.6055" y="128.723" width="18.8982" height="69.0186" fill="#C8FF00"/>
<rect x="75.4033" y="151.911" width="18.8982" height="54.5093" fill="#282828"/>
<rect x="101.202" y="117.401" width="18.8982" height="69.0186" fill="#282828"/>
<rect x="127" y="137.401" width="18.8982" height="25.8311" fill="#C8FF00"/>
<rect x="305.093" y="125.443" width="18.8982" height="34.5093" fill="#282828"/>
<rect x="330.592" y="137.401" width="18.8982" height="37.9233" fill="#282828"/>
<rect x="355.592" y="127.401" width="18.8982" height="79.0186" fill="#C8FF00"/>
<rect x="381.592" y="117.401" width="18.8982" height="57.9233" fill="#282828"/>
<rect x="407.938" y="139.818" width="18.8982" height="23.4141" fill="#C8FF00"/>
</g>
</svg>
